<?xml version="1.0" encoding="UTF-8" standalone="no"?>
<!DOCTYPE svg PUBLIC "-//W3C//DTD SVG 1.1//EN"
 "http://www.w3.org/Graphics/SVG/1.1/DTD/svg11.dtd">
<!-- Generated by graphviz version 3.0.0 (20220226.1711)
 -->
<!-- Title: dependencies Pages: 1 -->
<svg width="1071pt" height="247pt"
 viewBox="0.00 0.00 1071.00 246.80" xmlns="http://www.w3.org/2000/svg" xmlns:xlink="http://www.w3.org/1999/xlink">
<g id="graph0" class="graph" transform="scale(1 1) rotate(0) translate(4 242.8)">
<title>dependencies</title>
<polygon fill="white" stroke="transparent" points="-4,4 -4,-242.8 1067,-242.8 1067,4 -4,4"/>
<text text-anchor="middle" x="531.5" y="-8.2" font-family="sans-serif" font-size="14.00">dependencies</text>
<g id="clust1" class="cluster">
<title>cluster_CoreModule</title>
<polygon fill="none" stroke="black" stroke-dasharray="1,5" points="8,-32.8 8,-230.8 1055,-230.8 1055,-32.8 8,-32.8"/>
</g>
<g id="clust2" class="cluster">
<title>cluster_CoreModule_declarations</title>
<polygon fill="none" stroke="black" points="250,-40.8 250,-92.8 807,-92.8 807,-40.8 250,-40.8"/>
</g>
<g id="clust8" class="cluster">
<title>cluster_CoreModule_exports</title>
<polygon fill="none" stroke="black" points="16,-170.8 16,-222.8 1047,-222.8 1047,-170.8 16,-170.8"/>
</g>
<!-- FooterComponent -->
<g id="node1" class="node">
<title>FooterComponent</title>
<polygon fill="#ffffb3" stroke="black" points="798.88,-84.8 681.12,-84.8 681.12,-48.8 798.88,-48.8 798.88,-84.8"/>
<text text-anchor="middle" x="740" y="-62.6" font-family="Times,serif" font-size="14.00">FooterComponent</text>
</g>
<!-- CoreModule -->
<g id="node5" class="node">
<title>CoreModule</title>
<polygon fill="#8dd3c7" stroke="black" points="570.27,-149.8 567.27,-153.8 546.27,-153.8 543.27,-149.8 483.73,-149.8 483.73,-113.8 570.27,-113.8 570.27,-149.8"/>
<text text-anchor="middle" x="527" y="-127.6" font-family="Times,serif" font-size="14.00">CoreModule</text>
</g>
<!-- FooterComponent&#45;&gt;CoreModule -->
<g id="edge1" class="edge">
<title>FooterComponent&#45;&gt;CoreModule</title>
<path fill="none" stroke="black" d="M718.87,-84.81C718.87,-100.85 718.87,-121.8 718.87,-121.8 718.87,-121.8 580.54,-121.8 580.54,-121.8"/>
<polygon fill="black" stroke="black" points="580.54,-118.3 570.54,-121.8 580.54,-125.3 580.54,-118.3"/>
</g>
<!-- HeaderComponent -->
<g id="node2" class="node">
<title>HeaderComponent</title>
<polygon fill="#ffffb3" stroke="black" points="662.75,-84.8 541.25,-84.8 541.25,-48.8 662.75,-48.8 662.75,-84.8"/>
<text text-anchor="middle" x="602" y="-62.6" font-family="Times,serif" font-size="14.00">HeaderComponent</text>
</g>
<!-- HeaderComponent&#45;&gt;CoreModule -->
<g id="edge2" class="edge">
<title>HeaderComponent&#45;&gt;CoreModule</title>
<path fill="none" stroke="black" d="M555.76,-84.91C555.76,-84.91 555.76,-103.79 555.76,-103.79"/>
<polygon fill="black" stroke="black" points="552.26,-103.79 555.76,-113.79 559.26,-103.79 552.26,-103.79"/>
</g>
<!-- ModalMsgComponent -->
<g id="node3" class="node">
<title>ModalMsgComponent</title>
<polygon fill="#ffffb3" stroke="black" points="523.28,-84.8 380.72,-84.8 380.72,-48.8 523.28,-48.8 523.28,-84.8"/>
<text text-anchor="middle" x="452" y="-62.6" font-family="Times,serif" font-size="14.00">ModalMsgComponent</text>
</g>
<!-- ModalMsgComponent&#45;&gt;CoreModule -->
<g id="edge3" class="edge">
<title>ModalMsgComponent&#45;&gt;CoreModule</title>
<path fill="none" stroke="black" d="M503.5,-84.91C503.5,-84.91 503.5,-103.79 503.5,-103.79"/>
<polygon fill="black" stroke="black" points="500,-103.79 503.5,-113.79 507,-103.79 500,-103.79"/>
</g>
<!-- NavComponent -->
<g id="node4" class="node">
<title>NavComponent</title>
<polygon fill="#ffffb3" stroke="black" points="362.16,-84.8 257.84,-84.8 257.84,-48.8 362.16,-48.8 362.16,-84.8"/>
<text text-anchor="middle" x="310" y="-62.6" font-family="Times,serif" font-size="14.00">NavComponent</text>
</g>
<!-- NavComponent&#45;&gt;CoreModule -->
<g id="edge4" class="edge">
<title>NavComponent&#45;&gt;CoreModule</title>
<path fill="none" stroke="black" d="M293.39,-84.81C293.39,-100.85 293.39,-121.8 293.39,-121.8 293.39,-121.8 473.61,-121.8 473.61,-121.8"/>
<polygon fill="black" stroke="black" points="473.61,-125.3 483.61,-121.8 473.61,-118.3 473.61,-125.3"/>
</g>
<!-- FooterComponent  -->
<g id="node6" class="node">
<title>FooterComponent </title>
<polygon fill="#fb8072" stroke="black" points="1038.88,-214.8 917.12,-214.8 917.12,-178.8 1038.88,-178.8 1038.88,-214.8"/>
<text text-anchor="middle" x="978" y="-192.6" font-family="Times,serif" font-size="14.00">FooterComponent </text>
</g>
<!-- CoreModule&#45;&gt;FooterComponent  -->
<g id="edge5" class="edge">
<title>CoreModule&#45;&gt;FooterComponent </title>
<path fill="none" stroke="black" stroke-dasharray="5,2" d="M570.65,-128.8C683.84,-128.8 978,-128.8 978,-128.8 978,-128.8 978,-168.58 978,-168.58"/>
<polygon fill="black" stroke="black" points="974.5,-168.58 978,-178.58 981.5,-168.58 974.5,-168.58"/>
</g>
<!-- HeaderComponent  -->
<g id="node7" class="node">
<title>HeaderComponent </title>
<polygon fill="#fb8072" stroke="black" points="899.75,-214.8 774.25,-214.8 774.25,-178.8 899.75,-178.8 899.75,-214.8"/>
<text text-anchor="middle" x="837" y="-192.6" font-family="Times,serif" font-size="14.00">HeaderComponent </text>
</g>
<!-- CoreModule&#45;&gt;HeaderComponent  -->
<g id="edge6" class="edge">
<title>CoreModule&#45;&gt;HeaderComponent </title>
<path fill="none" stroke="black" stroke-dasharray="5,2" d="M570.46,-135.8C644.38,-135.8 786.66,-135.8 786.66,-135.8 786.66,-135.8 786.66,-168.5 786.66,-168.5"/>
<polygon fill="black" stroke="black" points="783.16,-168.5 786.66,-178.5 790.16,-168.5 783.16,-168.5"/>
</g>
<!-- IconsModule  -->
<g id="node8" class="node">
<title>IconsModule </title>
<polygon fill="#fb8072" stroke="black" points="756.88,-214.8 663.12,-214.8 663.12,-178.8 756.88,-178.8 756.88,-214.8"/>
<text text-anchor="middle" x="710" y="-192.6" font-family="Times,serif" font-size="14.00">IconsModule </text>
</g>
<!-- CoreModule&#45;&gt;IconsModule  -->
<g id="edge7" class="edge">
<title>CoreModule&#45;&gt;IconsModule </title>
<path fill="none" stroke="black" stroke-dasharray="5,2" d="M570.56,-142.8C613.33,-142.8 672.19,-142.8 672.19,-142.8 672.19,-142.8 672.19,-168.52 672.19,-168.52"/>
<polygon fill="black" stroke="black" points="668.69,-168.52 672.19,-178.52 675.69,-168.52 668.69,-168.52"/>
</g>
<!-- LoginModule  -->
<g id="node9" class="node">
<title>LoginModule </title>
<polygon fill="#fb8072" stroke="black" points="645.49,-214.8 548.51,-214.8 548.51,-178.8 645.49,-178.8 645.49,-214.8"/>
<text text-anchor="middle" x="597" y="-192.6" font-family="Times,serif" font-size="14.00">LoginModule </text>
</g>
<!-- CoreModule&#45;&gt;LoginModule  -->
<g id="edge8" class="edge">
<title>CoreModule&#45;&gt;LoginModule </title>
<path fill="none" stroke="black" stroke-dasharray="5,2" d="M559.57,-149.91C559.57,-149.91 559.57,-168.79 559.57,-168.79"/>
<polygon fill="black" stroke="black" points="556.07,-168.79 559.57,-178.79 563.07,-168.79 556.07,-168.79"/>
</g>
<!-- ModalMsgComponent  -->
<g id="node10" class="node">
<title>ModalMsgComponent </title>
<polygon fill="#fb8072" stroke="black" points="531.28,-214.8 384.72,-214.8 384.72,-178.8 531.28,-178.8 531.28,-214.8"/>
<text text-anchor="middle" x="458" y="-192.6" font-family="Times,serif" font-size="14.00">ModalMsgComponent </text>
</g>
<!-- CoreModule&#45;&gt;ModalMsgComponent  -->
<g id="edge9" class="edge">
<title>CoreModule&#45;&gt;ModalMsgComponent </title>
<path fill="none" stroke="black" stroke-dasharray="5,2" d="M507.38,-149.91C507.38,-149.91 507.38,-168.79 507.38,-168.79"/>
<polygon fill="black" stroke="black" points="503.88,-168.79 507.38,-178.79 510.88,-168.79 503.88,-168.79"/>
</g>
<!-- NavComponent  -->
<g id="node11" class="node">
<title>NavComponent </title>
<polygon fill="#fb8072" stroke="black" points="367.16,-214.8 258.84,-214.8 258.84,-178.8 367.16,-178.8 367.16,-214.8"/>
<text text-anchor="middle" x="313" y="-192.6" font-family="Times,serif" font-size="14.00">NavComponent </text>
</g>
<!-- CoreModule&#45;&gt;NavComponent  -->
<g id="edge10" class="edge">
<title>CoreModule&#45;&gt;NavComponent </title>
<path fill="none" stroke="black" stroke-dasharray="5,2" d="M483.3,-142.8C424.68,-142.8 327.86,-142.8 327.86,-142.8 327.86,-142.8 327.86,-168.52 327.86,-168.52"/>
<polygon fill="black" stroke="black" points="324.36,-168.52 327.86,-178.52 331.36,-168.52 324.36,-168.52"/>
</g>
<!-- TemplatesModule  -->
<g id="node12" class="node">
<title>TemplatesModule </title>
<polygon fill="#fb8072" stroke="black" points="240.86,-214.8 119.14,-214.8 119.14,-178.8 240.86,-178.8 240.86,-214.8"/>
<text text-anchor="middle" x="180" y="-192.6" font-family="Times,serif" font-size="14.00">TemplatesModule </text>
</g>
<!-- CoreModule&#45;&gt;TemplatesModule  -->
<g id="edge11" class="edge">
<title>CoreModule&#45;&gt;TemplatesModule </title>
<path fill="none" stroke="black" stroke-dasharray="5,2" d="M483.4,-135.8C390.21,-135.8 180,-135.8 180,-135.8 180,-135.8 180,-168.5 180,-168.5"/>
<polygon fill="black" stroke="black" points="176.5,-168.5 180,-178.5 183.5,-168.5 176.5,-168.5"/>
</g>
<!-- UiModule  -->
<g id="node13" class="node">
<title>UiModule </title>
<polygon fill="#fb8072" stroke="black" points="101.55,-214.8 24.45,-214.8 24.45,-178.8 101.55,-178.8 101.55,-214.8"/>
<text text-anchor="middle" x="63" y="-192.6" font-family="Times,serif" font-size="14.00">UiModule </text>
</g>
<!-- CoreModule&#45;&gt;UiModule  -->
<g id="edge12" class="edge">
<title>CoreModule&#45;&gt;UiModule </title>
<path fill="none" stroke="black" stroke-dasharray="5,2" d="M483.35,-128.8C367.84,-128.8 63,-128.8 63,-128.8 63,-128.8 63,-168.58 63,-168.58"/>
<polygon fill="black" stroke="black" points="59.5,-168.58 63,-178.58 66.5,-168.58 59.5,-168.58"/>
</g>
</g>
</svg>
