<?xml version="1.0" encoding="UTF-8" standalone="no"?>
<!DOCTYPE svg PUBLIC "-//W3C//DTD SVG 1.1//EN"
 "http://www.w3.org/Graphics/SVG/1.1/DTD/svg11.dtd">
<!-- Generated by graphviz version 3.0.0 (20220226.1711)
 -->
<!-- Title: dependencies Pages: 1 -->
<svg width="1035pt" height="174pt"
 viewBox="0.00 0.00 1035.00 173.80" xmlns="http://www.w3.org/2000/svg" xmlns:xlink="http://www.w3.org/1999/xlink">
<g id="graph0" class="graph" transform="scale(1 1) rotate(0) translate(4 169.8)">
<title>dependencies</title>
<polygon fill="white" stroke="transparent" points="-4,4 -4,-169.8 1031,-169.8 1031,4 -4,4"/>
<text text-anchor="middle" x="513.5" y="-8.2" font-family="sans-serif" font-size="14.00">dependencies</text>
<g id="clust1" class="cluster">
<title>cluster_OrdersModule</title>
<polygon fill="none" stroke="black" stroke-dasharray="1,5" points="8,-32.8 8,-157.8 1019,-157.8 1019,-32.8 8,-32.8"/>
</g>
<g id="clust7" class="cluster">
<title>cluster_OrdersModule_imports</title>
<polygon fill="none" stroke="black" points="736,-40.8 736,-92.8 1011,-92.8 1011,-40.8 736,-40.8"/>
</g>
<g id="clust2" class="cluster">
<title>cluster_OrdersModule_declarations</title>
<polygon fill="none" stroke="black" points="16,-40.8 16,-92.8 728,-92.8 728,-40.8 16,-40.8"/>
</g>
<!-- FormOrderComponent -->
<g id="node1" class="node">
<title>FormOrderComponent</title>
<polygon fill="#ffffb3" stroke="black" points="720.32,-84.8 575.68,-84.8 575.68,-48.8 720.32,-48.8 720.32,-84.8"/>
<text text-anchor="middle" x="648" y="-62.6" font-family="Times,serif" font-size="14.00">FormOrderComponent</text>
</g>
<!-- OrdersModule -->
<g id="node5" class="node">
<title>OrdersModule</title>
<polygon fill="#8dd3c7" stroke="black" points="609.65,-149.8 606.65,-153.8 585.65,-153.8 582.65,-149.8 512.35,-149.8 512.35,-113.8 609.65,-113.8 609.65,-149.8"/>
<text text-anchor="middle" x="561" y="-127.6" font-family="Times,serif" font-size="14.00">OrdersModule</text>
</g>
<!-- FormOrderComponent&#45;&gt;OrdersModule -->
<g id="edge1" class="edge">
<title>FormOrderComponent&#45;&gt;OrdersModule</title>
<path fill="none" stroke="black" d="M592.83,-84.91C592.83,-84.91 592.83,-103.79 592.83,-103.79"/>
<polygon fill="black" stroke="black" points="589.33,-103.79 592.83,-113.79 596.33,-103.79 589.33,-103.79"/>
</g>
<!-- PageAddOrderComponent -->
<g id="node2" class="node">
<title>PageAddOrderComponent</title>
<polygon fill="#ffffb3" stroke="black" points="557.8,-84.8 392.2,-84.8 392.2,-48.8 557.8,-48.8 557.8,-84.8"/>
<text text-anchor="middle" x="475" y="-62.6" font-family="Times,serif" font-size="14.00">PageAddOrderComponent</text>
</g>
<!-- PageAddOrderComponent&#45;&gt;OrdersModule -->
<g id="edge2" class="edge">
<title>PageAddOrderComponent&#45;&gt;OrdersModule</title>
<path fill="none" stroke="black" d="M534.91,-84.91C534.91,-84.91 534.91,-103.79 534.91,-103.79"/>
<polygon fill="black" stroke="black" points="531.41,-103.79 534.91,-113.79 538.41,-103.79 531.41,-103.79"/>
</g>
<!-- PageEditOrderComponent -->
<g id="node3" class="node">
<title>PageEditOrderComponent</title>
<polygon fill="#ffffb3" stroke="black" points="374.03,-84.8 209.97,-84.8 209.97,-48.8 374.03,-48.8 374.03,-84.8"/>
<text text-anchor="middle" x="292" y="-62.6" font-family="Times,serif" font-size="14.00">PageEditOrderComponent</text>
</g>
<!-- PageEditOrderComponent&#45;&gt;OrdersModule -->
<g id="edge3" class="edge">
<title>PageEditOrderComponent&#45;&gt;OrdersModule</title>
<path fill="none" stroke="black" d="M292,-84.82C292,-102.17 292,-125.8 292,-125.8 292,-125.8 502.29,-125.8 502.29,-125.8"/>
<polygon fill="black" stroke="black" points="502.29,-129.3 512.29,-125.8 502.29,-122.3 502.29,-129.3"/>
</g>
<!-- PageListOrdersComponent -->
<g id="node4" class="node">
<title>PageListOrdersComponent</title>
<polygon fill="#ffffb3" stroke="black" points="192.42,-84.8 23.58,-84.8 23.58,-48.8 192.42,-48.8 192.42,-84.8"/>
<text text-anchor="middle" x="108" y="-62.6" font-family="Times,serif" font-size="14.00">PageListOrdersComponent</text>
</g>
<!-- PageListOrdersComponent&#45;&gt;OrdersModule -->
<g id="edge4" class="edge">
<title>PageListOrdersComponent&#45;&gt;OrdersModule</title>
<path fill="none" stroke="black" d="M108,-85.08C108,-106.12 108,-137.8 108,-137.8 108,-137.8 502.09,-137.8 502.09,-137.8"/>
<polygon fill="black" stroke="black" points="502.09,-141.3 512.09,-137.8 502.09,-134.3 502.09,-141.3"/>
</g>
<!-- OrdersRoutingModule -->
<g id="node6" class="node">
<title>OrdersRoutingModule</title>
<polygon fill="#8dd3c7" stroke="black" points="1003.27,-84.8 1000.27,-88.8 979.27,-88.8 976.27,-84.8 860.73,-84.8 860.73,-48.8 1003.27,-48.8 1003.27,-84.8"/>
<text text-anchor="middle" x="932" y="-62.6" font-family="Times,serif" font-size="14.00">OrdersRoutingModule</text>
</g>
<!-- OrdersRoutingModule&#45;&gt;OrdersModule -->
<g id="edge5" class="edge">
<title>OrdersRoutingModule&#45;&gt;OrdersModule</title>
<path fill="none" stroke="black" d="M932,-85.08C932,-106.12 932,-137.8 932,-137.8 932,-137.8 619.88,-137.8 619.88,-137.8"/>
<polygon fill="black" stroke="black" points="619.88,-134.3 609.88,-137.8 619.88,-141.3 619.88,-134.3"/>
</g>
<!-- SharedModule -->
<g id="node7" class="node">
<title>SharedModule</title>
<polygon fill="#8dd3c7" stroke="black" points="842.43,-84.8 839.43,-88.8 818.43,-88.8 815.43,-84.8 743.57,-84.8 743.57,-48.8 842.43,-48.8 842.43,-84.8"/>
<text text-anchor="middle" x="793" y="-62.6" font-family="Times,serif" font-size="14.00">SharedModule</text>
</g>
<!-- SharedModule&#45;&gt;OrdersModule -->
<g id="edge6" class="edge">
<title>SharedModule&#45;&gt;OrdersModule</title>
<path fill="none" stroke="black" d="M793,-84.82C793,-102.17 793,-125.8 793,-125.8 793,-125.8 619.92,-125.8 619.92,-125.8"/>
<polygon fill="black" stroke="black" points="619.92,-122.3 609.92,-125.8 619.92,-129.3 619.92,-122.3"/>
</g>
</g>
</svg>
