<?xml version="1.0" encoding="UTF-8" standalone="no"?>
<!DOCTYPE svg PUBLIC "-//W3C//DTD SVG 1.1//EN"
 "http://www.w3.org/Graphics/SVG/1.1/DTD/svg11.dtd">
<!-- Generated by graphviz version 3.0.0 (20220226.1711)
 -->
<!-- Title: dependencies Pages: 1 -->
<svg width="1042pt" height="174pt"
 viewBox="0.00 0.00 1042.00 173.80" xmlns="http://www.w3.org/2000/svg" xmlns:xlink="http://www.w3.org/1999/xlink">
<g id="graph0" class="graph" transform="scale(1 1) rotate(0) translate(4 169.8)">
<title>dependencies</title>
<polygon fill="white" stroke="transparent" points="-4,4 -4,-169.8 1038,-169.8 1038,4 -4,4"/>
<text text-anchor="middle" x="517" y="-8.2" font-family="sans-serif" font-size="14.00">dependencies</text>
<g id="clust1" class="cluster">
<title>cluster_ClientsModule</title>
<polygon fill="none" stroke="black" stroke-dasharray="1,5" points="8,-32.8 8,-157.8 1026,-157.8 1026,-32.8 8,-32.8"/>
</g>
<g id="clust2" class="cluster">
<title>cluster_ClientsModule_declarations</title>
<polygon fill="none" stroke="black" points="300,-40.8 300,-92.8 1018,-92.8 1018,-40.8 300,-40.8"/>
</g>
<g id="clust7" class="cluster">
<title>cluster_ClientsModule_imports</title>
<polygon fill="none" stroke="black" points="16,-40.8 16,-92.8 292,-92.8 292,-40.8 16,-40.8"/>
</g>
<!-- FormClientComponent -->
<g id="node1" class="node">
<title>FormClientComponent</title>
<polygon fill="#ffffb3" stroke="black" points="1009.89,-84.8 864.11,-84.8 864.11,-48.8 1009.89,-48.8 1009.89,-84.8"/>
<text text-anchor="middle" x="937" y="-62.6" font-family="Times,serif" font-size="14.00">FormClientComponent</text>
</g>
<!-- ClientsModule -->
<g id="node5" class="node">
<title>ClientsModule</title>
<polygon fill="#8dd3c7" stroke="black" points="535.72,-149.8 532.72,-153.8 511.72,-153.8 508.72,-149.8 436.28,-149.8 436.28,-113.8 535.72,-113.8 535.72,-149.8"/>
<text text-anchor="middle" x="486" y="-127.6" font-family="Times,serif" font-size="14.00">ClientsModule</text>
</g>
<!-- FormClientComponent&#45;&gt;ClientsModule -->
<g id="edge1" class="edge">
<title>FormClientComponent&#45;&gt;ClientsModule</title>
<path fill="none" stroke="black" d="M937,-85.08C937,-106.12 937,-137.8 937,-137.8 937,-137.8 545.99,-137.8 545.99,-137.8"/>
<polygon fill="black" stroke="black" points="545.99,-134.3 535.99,-137.8 545.99,-141.3 545.99,-134.3"/>
</g>
<!-- PageAddClientComponent -->
<g id="node2" class="node">
<title>PageAddClientComponent</title>
<polygon fill="#ffffb3" stroke="black" points="846.38,-84.8 679.62,-84.8 679.62,-48.8 846.38,-48.8 846.38,-84.8"/>
<text text-anchor="middle" x="763" y="-62.6" font-family="Times,serif" font-size="14.00">PageAddClientComponent</text>
</g>
<!-- PageAddClientComponent&#45;&gt;ClientsModule -->
<g id="edge2" class="edge">
<title>PageAddClientComponent&#45;&gt;ClientsModule</title>
<path fill="none" stroke="black" d="M763,-84.82C763,-102.17 763,-125.8 763,-125.8 763,-125.8 545.84,-125.8 545.84,-125.8"/>
<polygon fill="black" stroke="black" points="545.84,-122.3 535.84,-125.8 545.84,-129.3 545.84,-122.3"/>
</g>
<!-- PageEditClientComponent -->
<g id="node3" class="node">
<title>PageEditClientComponent</title>
<polygon fill="#ffffb3" stroke="black" points="662.1,-84.8 495.9,-84.8 495.9,-48.8 662.1,-48.8 662.1,-84.8"/>
<text text-anchor="middle" x="579" y="-62.6" font-family="Times,serif" font-size="14.00">PageEditClientComponent</text>
</g>
<!-- PageEditClientComponent&#45;&gt;ClientsModule -->
<g id="edge3" class="edge">
<title>PageEditClientComponent&#45;&gt;ClientsModule</title>
<path fill="none" stroke="black" d="M515.78,-84.91C515.78,-84.91 515.78,-103.79 515.78,-103.79"/>
<polygon fill="black" stroke="black" points="512.28,-103.79 515.78,-113.79 519.28,-103.79 512.28,-103.79"/>
</g>
<!-- PageListClientsComponent -->
<g id="node4" class="node">
<title>PageListClientsComponent</title>
<polygon fill="#ffffb3" stroke="black" points="477.99,-84.8 308.01,-84.8 308.01,-48.8 477.99,-48.8 477.99,-84.8"/>
<text text-anchor="middle" x="393" y="-62.6" font-family="Times,serif" font-size="14.00">PageListClientsComponent</text>
</g>
<!-- PageListClientsComponent&#45;&gt;ClientsModule -->
<g id="edge4" class="edge">
<title>PageListClientsComponent&#45;&gt;ClientsModule</title>
<path fill="none" stroke="black" d="M457.19,-84.91C457.19,-84.91 457.19,-103.79 457.19,-103.79"/>
<polygon fill="black" stroke="black" points="453.69,-103.79 457.19,-113.79 460.69,-103.79 453.69,-103.79"/>
</g>
<!-- ClientsRoutingModule -->
<g id="node6" class="node">
<title>ClientsRoutingModule</title>
<polygon fill="#8dd3c7" stroke="black" points="284.34,-84.8 281.34,-88.8 260.34,-88.8 257.34,-84.8 139.66,-84.8 139.66,-48.8 284.34,-48.8 284.34,-84.8"/>
<text text-anchor="middle" x="212" y="-62.6" font-family="Times,serif" font-size="14.00">ClientsRoutingModule</text>
</g>
<!-- ClientsRoutingModule&#45;&gt;ClientsModule -->
<g id="edge5" class="edge">
<title>ClientsRoutingModule&#45;&gt;ClientsModule</title>
<path fill="none" stroke="black" d="M212,-84.82C212,-102.17 212,-125.8 212,-125.8 212,-125.8 426.38,-125.8 426.38,-125.8"/>
<polygon fill="black" stroke="black" points="426.38,-129.3 436.38,-125.8 426.38,-122.3 426.38,-129.3"/>
</g>
<!-- SharedModule -->
<g id="node7" class="node">
<title>SharedModule</title>
<polygon fill="#8dd3c7" stroke="black" points="122.43,-84.8 119.43,-88.8 98.43,-88.8 95.43,-84.8 23.57,-84.8 23.57,-48.8 122.43,-48.8 122.43,-84.8"/>
<text text-anchor="middle" x="73" y="-62.6" font-family="Times,serif" font-size="14.00">SharedModule</text>
</g>
<!-- SharedModule&#45;&gt;ClientsModule -->
<g id="edge6" class="edge">
<title>SharedModule&#45;&gt;ClientsModule</title>
<path fill="none" stroke="black" d="M73,-85.08C73,-106.12 73,-137.8 73,-137.8 73,-137.8 426.18,-137.8 426.18,-137.8"/>
<polygon fill="black" stroke="black" points="426.18,-141.3 436.18,-137.8 426.18,-134.3 426.18,-141.3"/>
</g>
</g>
</svg>
